<?xml version="1.0" encoding="UTF-8" standalone="no"?>
<!DOCTYPE svg PUBLIC "-//W3C//DTD SVG 1.1//EN" "http://www.w3.org/Graphics/SVG/1.1/DTD/svg11.dtd">
<svg width="100%" height="100%" viewBox="0 0 200 120" version="1.1" xmlns="http://www.w3.org/2000/svg" xmlns:xlink="http://www.w3.org/1999/xlink" xml:space="preserve" xmlns:serif="http://www.serif.com/" style="fill-rule:evenodd;clip-rule:evenodd;stroke-linejoin:round;stroke-miterlimit:2;">
    <g id="Artboard1" transform="matrix(0.2,0,0,0.12,0,0)">
        <rect x="0" y="0" width="1000" height="1000" style="fill:none;"/>
        <clipPath id="_clip1">
            <rect x="0" y="0" width="1000" height="1000"/>
        </clipPath>
        <g clip-path="url(#_clip1)">
            <g transform="matrix(76.923077,0,0,8.333333,0,0)">
                <rect x="0" y="0" width="13" height="24" style="fill:rgb(227,141,0);"/>
            </g>
            <g transform="matrix(76.923077,0,0,8.333333,0,200)">
                <rect x="0" y="0" width="13" height="24" style="fill:rgb(237,206,0);"/>
            </g>
            <g transform="matrix(76.923077,0,0,8.333333,0,400)">
                <rect x="0" y="0" width="13" height="24" style="fill:white;"/>
            </g>
            <g transform="matrix(76.923077,0,0,8.333333,0,600)">
                <rect x="0" y="0" width="13" height="24" style="fill:rgb(98,176,221);"/>
            </g>
            <g transform="matrix(76.923077,0,0,8.333333,0,800)">
                <rect x="0" y="0" width="13" height="24" style="fill:rgb(26,53,85);"/>
            </g>
        </g>
    </g>
</svg>
