<?xml version="1.0" encoding="UTF-8" standalone="no"?>
<!DOCTYPE svg PUBLIC "-//W3C//DTD SVG 1.1//EN" "http://www.w3.org/Graphics/SVG/1.1/DTD/svg11.dtd">
<svg viewBox="0 0 393 264" version="1.1" xmlns="http://www.w3.org/2000/svg" xmlns:xlink="http://www.w3.org/1999/xlink" xml:space="preserve" xmlns:serif="http://www.serif.com/" style="fill-rule:evenodd;clip-rule:evenodd;stroke-linejoin:round;stroke-miterlimit:2;">
    <g transform="matrix(1,0,0,1,0,-2037)">
        <g id="Artboard1" transform="matrix(0.31976,0,0,0.372881,235.982955,1277.440678)">
            <rect x="-738" y="2037" width="1228" height="708" style="fill:none;"/>
            <g id="Hello-My-Name-Is" serif:id="Hello My Name Is" transform="matrix(2.532946,0,-0,2.170156,-7764.109685,-3657.508967)">
                <g transform="matrix(0.960581,0,0,0.95,588.151452,-1864.023505)">
                    <path d="M2769,4762.016L2769,5029.984C2769,5044.343 2757.481,5056 2743.293,5056L2312.707,5056C2298.519,5056 2287,5044.343 2287,5029.984L2287,4762.016C2287,4747.657 2298.519,4736 2312.707,4736L2743.293,4736C2757.481,4736 2769,4747.657 2769,4762.016Z" style="fill:rgb(243,51,50);"/>
                    <path d="M2779.711,4762.016L2779.711,5029.984C2779.711,5050.325 2763.393,5066.84 2743.293,5066.84L2312.707,5066.84C2292.607,5066.84 2276.289,5050.325 2276.289,5029.984L2276.289,4762.016C2276.289,4741.675 2292.607,4725.16 2312.707,4725.16L2743.293,4725.16C2763.393,4725.16 2779.711,4741.675 2779.711,4762.016ZM2769,4762.016C2769,4747.657 2757.481,4736 2743.293,4736L2312.707,4736C2298.519,4736 2287,4747.657 2287,4762.016L2287,5029.984C2287,5044.343 2298.519,5056 2312.707,5056L2743.293,5056C2757.481,5056 2769,5044.343 2769,5029.984L2769,4762.016Z" style="fill:white;"/>
                </g>
                <g transform="matrix(0.99768,0,0,0.986207,494.864269,-2040.57931)">
                    <path d="M2743,4903.69L2743,5017.31C2743,5025.969 2736.056,5033 2727.504,5033L2327.496,5033C2318.944,5033 2312,5025.969 2312,5017.31L2312,4903.69C2312,4895.031 2318.944,4888 2327.496,4888L2727.504,4888C2736.056,4888 2743,4895.031 2743,4903.69Z" style="fill:white;"/>
                </g>
                <g transform="matrix(1,0,0,1,-127.985044,-1909.10629)">
                    <path d="M2987.638,4767.257C2985.26,4769.041 2982.777,4770.334 2980.191,4771.137C2977.604,4771.94 2975.032,4772.163 2972.475,4771.806C2969.919,4771.449 2967.718,4770.349 2965.875,4768.506C2964.21,4773.798 2963.08,4779.031 2962.486,4784.204C2962.248,4785.155 2961.832,4786.017 2961.237,4786.79C2960.167,4789.942 2957.818,4792.053 2954.191,4793.123C2950.623,4794.134 2947.293,4793.956 2944.201,4792.588C2942.774,4791.934 2941.585,4790.983 2940.633,4789.734C2939.682,4788.485 2939.206,4786.969 2939.206,4785.185C2943.309,4770.974 2947.263,4759.319 2951.069,4750.221C2951.901,4748.318 2952.57,4746.772 2953.076,4745.583C2953.581,4744.394 2954.042,4743.383 2954.458,4742.551C2954.875,4741.718 2955.246,4740.99 2955.573,4740.365C2955.9,4739.741 2956.302,4739.042 2956.777,4738.269C2957.848,4736.485 2959.082,4734.389 2960.479,4731.981C2961.876,4729.573 2963.066,4727.774 2964.047,4726.585C2965.028,4725.396 2966.068,4724.37 2967.168,4723.508C2968.268,4722.646 2969.487,4721.828 2970.825,4721.055C2972.163,4720.282 2973.843,4719.271 2975.865,4718.022C2977.887,4716.774 2980.042,4716.015 2982.331,4715.748C2984.621,4715.48 2986.806,4715.674 2988.887,4716.328C2993.287,4717.695 2996.528,4720.758 2998.609,4725.515C3000.393,4729.915 3000.69,4735.831 2999.501,4743.264C2997.658,4754.621 2993.703,4762.619 2987.638,4767.257ZM2968.997,4759.319C2973.873,4758.249 2977.262,4755.067 2979.165,4749.775C2980.77,4745.316 2981.097,4740.261 2980.146,4734.612C2978.778,4736.931 2977.545,4739.34 2976.445,4741.837C2975.345,4744.334 2974.349,4746.564 2973.457,4748.526C2971.494,4752.927 2970.008,4756.524 2968.997,4759.319Z" style="fill:rgb(43,43,43);fill-rule:nonzero;"/>
                    <path d="M3036.784,4748.081L3037.141,4748.17C3037.26,4748.17 3037.319,4748.199 3037.319,4748.259C3038.865,4747.664 3040.144,4748.11 3041.154,4749.597C3041.809,4750.608 3042.314,4752.154 3042.671,4754.235C3042.79,4757.089 3042.492,4761.043 3041.779,4766.098C3040.411,4776.325 3039.668,4782.42 3039.549,4784.382C3039.668,4786.463 3038.389,4787.891 3035.714,4788.664C3033.395,4789.377 3031.076,4789.347 3028.757,4788.574C3026.319,4787.742 3025.308,4786.463 3025.724,4784.739C3025.248,4785.631 3024.773,4786.27 3024.297,4786.657C3023.821,4787.043 3022.885,4787.578 3021.487,4788.262C3020.09,4788.946 3018.113,4789.511 3015.556,4789.957C3012.999,4790.403 3010.442,4790.522 3007.885,4790.314C3005.328,4790.106 3002.994,4789.481 3000.884,4788.441C2998.773,4787.4 2997.36,4785.78 2996.647,4783.58C2995.279,4779.298 2995.458,4773.857 2997.182,4767.257C2998.371,4762.916 3000.512,4759.081 3003.604,4755.751C3007.172,4751.946 3011.215,4748.794 3015.734,4746.297C3019.124,4744.453 3022.394,4743.353 3025.546,4742.996C3026.616,4742.878 3027.552,4742.907 3028.355,4743.086C3029.158,4743.264 3030.02,4743.442 3030.942,4743.621C3031.863,4743.799 3032.741,4744.067 3033.573,4744.424C3035.714,4745.316 3036.784,4746.535 3036.784,4748.081ZM3020.283,4771.717C3020.699,4770.884 3021.041,4769.844 3021.309,4768.595C3021.576,4767.346 3021.948,4765.979 3022.424,4764.492C3017.607,4766.454 3013.921,4768.863 3011.364,4771.717C3008.569,4774.868 3008.747,4777.039 3011.899,4778.228C3014.634,4778.941 3016.626,4778.495 3017.875,4776.89C3018.41,4776.176 3018.886,4775.285 3019.302,4774.214C3019.718,4773.144 3020.224,4772.044 3020.818,4770.914C3020.64,4771.211 3020.462,4771.479 3020.283,4771.717Z" style="fill:rgb(43,43,43);fill-rule:nonzero;"/>
                    <path d="M3065.237,4749.864C3068.21,4745.405 3072.342,4742.729 3077.635,4741.837C3079.359,4741.54 3081.485,4741.332 3084.012,4741.213C3086.539,4741.094 3088.709,4741.659 3090.523,4742.907C3092.337,4744.156 3093.689,4745.761 3094.581,4747.724C3096.127,4751.232 3096.365,4755.543 3095.295,4760.657C3094.7,4763.452 3093.987,4766.529 3093.154,4769.888C3092.322,4773.248 3091.073,4776.563 3089.408,4779.833C3087.743,4783.104 3085.573,4786.166 3082.897,4789.02C3080.221,4791.875 3076.743,4794.134 3072.461,4795.799C3069.904,4796.81 3067.66,4797.182 3065.727,4796.914C3063.795,4796.646 3062.353,4796.245 3061.401,4795.71C3060.45,4795.175 3059.796,4794.402 3059.439,4793.391C3058.25,4796.78 3057.135,4800.214 3056.094,4803.693C3055.054,4807.171 3053.671,4810.486 3051.947,4813.638C3050.758,4814.411 3049.301,4814.99 3047.576,4815.377C3045.852,4815.763 3044.157,4815.674 3042.492,4815.109C3040.827,4814.545 3039.623,4813.534 3038.88,4812.077C3038.137,4810.62 3037.765,4809.029 3037.765,4807.305C3037.765,4804.986 3038.33,4802.161 3039.46,4798.832C3041.125,4793.896 3042.477,4790.091 3043.518,4787.415C3044.559,4784.739 3045.228,4783 3045.525,4782.197C3045.822,4781.394 3046.12,4780.547 3046.417,4779.655C3047.725,4776.206 3048.691,4773.397 3049.316,4771.226C3049.94,4769.056 3050.52,4767.168 3051.055,4765.562L3051.055,4765.473C3051.65,4762.857 3052.586,4760.077 3053.864,4757.134C3055.143,4754.19 3056.02,4752.392 3056.496,4751.737C3057.507,4750.727 3058.547,4750.102 3059.617,4749.864C3060.688,4749.627 3061.907,4749.478 3063.274,4749.418L3063.542,4749.418L3065.237,4749.864ZM3072.015,4764.76C3071.302,4766.008 3070.113,4767.168 3068.448,4768.238L3067.645,4770.111C3067.05,4771.657 3066.485,4773.233 3065.95,4774.839C3065.415,4776.444 3064.82,4778.02 3064.166,4779.566C3064.761,4780.16 3065.207,4780.725 3065.504,4781.26C3068.834,4778.347 3071.867,4774.512 3074.602,4769.755C3075.672,4767.792 3076.371,4765.83 3076.698,4763.868C3077.025,4761.906 3077.099,4760.657 3076.921,4760.122C3076.743,4759.586 3076.46,4759.319 3076.074,4759.319C3075.687,4759.319 3075.301,4759.423 3074.914,4759.631C3074.528,4759.839 3074.23,4760.047 3074.022,4760.255C3073.814,4760.464 3073.829,4760.478 3074.067,4760.3C3073.413,4761.073 3072.937,4761.742 3072.64,4762.307C3072.342,4762.872 3072.134,4763.689 3072.015,4764.76Z" style="fill:rgb(43,43,43);fill-rule:nonzero;"/>
                    <path d="M3127.315,4773.144C3126.186,4773.679 3125.085,4774.095 3124.015,4774.393C3122.945,4774.69 3121.696,4774.987 3120.269,4775.285C3116.523,4776.058 3113.817,4776.504 3112.152,4776.622C3112.331,4777.217 3113.223,4777.931 3114.828,4778.763C3115.899,4778.941 3117.073,4778.778 3118.351,4778.273C3119.63,4777.767 3120.968,4777.291 3122.365,4776.845C3123.762,4776.399 3125.13,4776.147 3126.468,4776.087C3127.806,4776.028 3129.069,4776.533 3130.259,4777.604C3130.734,4778.674 3131.121,4779.298 3131.418,4779.477C3131.716,4779.655 3131.983,4779.744 3132.221,4779.744C3132.459,4779.744 3132.726,4779.833 3133.024,4780.012C3133.321,4780.19 3133.752,4780.874 3134.317,4782.063C3134.882,4783.252 3134.733,4784.382 3133.871,4785.453C3133.009,4786.523 3131.686,4787.445 3129.902,4788.218C3128.118,4788.991 3126.037,4789.615 3123.658,4790.091C3121.28,4790.566 3118.901,4790.893 3116.523,4791.072C3111.171,4791.488 3107.098,4791.072 3104.303,4789.823C3100.26,4788.455 3097.644,4785.75 3096.454,4781.706C3094.908,4776.355 3095.771,4770.111 3099.041,4762.976C3100.528,4759.646 3102.876,4756.078 3106.087,4752.273C3108.882,4748.943 3112.004,4746.535 3115.453,4745.048C3119.437,4743.324 3123.599,4742.521 3127.94,4742.64C3132.578,4742.759 3135.789,4744.78 3137.573,4748.705C3138.464,4750.786 3138.643,4753.7 3138.108,4757.446C3137.156,4762.322 3135.908,4765.771 3134.362,4767.792C3132.816,4769.755 3130.467,4771.538 3127.315,4773.144ZM3122.142,4759.051C3118.991,4758.397 3116.523,4760.181 3114.739,4764.403C3114.204,4765.533 3113.788,4766.722 3113.49,4767.971C3115.512,4768.209 3117.653,4767.079 3119.912,4764.581C3120.745,4763.57 3121.369,4762.545 3121.785,4761.504C3122.202,4760.464 3122.32,4759.646 3122.142,4759.051Z" style="fill:rgb(43,43,43);fill-rule:nonzero;"/>
                    <path d="M3148.454,4749.418C3149.287,4747.278 3150.461,4745.657 3151.977,4744.557C3153.494,4743.457 3154.95,4742.774 3156.348,4742.506C3157.745,4742.238 3158.905,4742.402 3159.826,4742.996C3160.748,4743.591 3161.06,4744.513 3160.763,4745.761C3161.893,4744.632 3163.528,4743.591 3165.668,4742.64C3167.809,4741.688 3169.504,4741.034 3170.753,4740.677C3172.001,4740.321 3173.072,4740.142 3173.963,4740.142C3175.926,4740.261 3176.491,4741.332 3175.658,4743.353C3176.669,4743.532 3177.412,4744.186 3177.888,4745.316C3178.364,4746.445 3178.423,4747.694 3178.066,4749.062C3177.71,4750.429 3176.907,4751.767 3175.658,4753.075C3174.409,4754.384 3172.73,4755.275 3170.619,4755.751C3168.508,4756.227 3166.754,4757.312 3165.356,4759.007C3163.959,4760.701 3162.725,4762.797 3161.655,4765.295C3159.871,4769.517 3158.265,4775.493 3156.838,4783.223C3156.363,4786.017 3154.43,4788.366 3151.041,4790.269C3147.83,4792.112 3144.886,4792.648 3142.211,4791.875C3139.178,4791.042 3137.84,4788.812 3138.197,4785.185C3138.316,4782.628 3139.089,4779.224 3140.516,4774.972C3141.943,4770.721 3143.043,4767.51 3143.816,4765.339C3144.589,4763.169 3145.124,4761.519 3145.422,4760.389L3148.454,4749.418Z" style="fill:rgb(43,43,43);fill-rule:nonzero;"/>
                    <path d="M3191.624,4786.612L3189.394,4788.664C3188.205,4789.496 3187.045,4790.001 3185.915,4790.18L3186.005,4790.269L3185.559,4790.626C3181.337,4790.983 3178.215,4790.061 3176.193,4787.861C3174.112,4785.542 3173.666,4782.509 3174.855,4778.763C3177.472,4763.957 3181.129,4750.221 3185.826,4737.556C3188.978,4728.993 3192.01,4723.255 3194.924,4720.341C3196.47,4718.855 3197.897,4718.409 3199.205,4719.003C3199.562,4717.576 3200.186,4716.461 3201.078,4715.659C3201.97,4714.856 3202.951,4714.38 3204.022,4714.232C3205.092,4714.083 3206.133,4714.261 3207.143,4714.767C3208.154,4715.272 3208.942,4716.179 3209.507,4717.487C3210.072,4718.795 3210.31,4720.059 3210.221,4721.278C3210.131,4722.497 3209.864,4723.686 3209.418,4724.846C3208.972,4726.005 3208.437,4727.15 3207.812,4728.28C3207.188,4729.409 3206.608,4730.539 3206.073,4731.669C3202.268,4740.826 3199.562,4747.605 3197.957,4752.005L3198.759,4751.47C3202.684,4748.854 3206.876,4747.694 3211.336,4747.991C3213.298,4748.17 3215.067,4748.69 3216.643,4749.552C3218.218,4750.414 3219.378,4751.708 3220.121,4753.432C3220.864,4755.157 3221.162,4757.372 3221.013,4760.077C3220.864,4762.783 3220.344,4765.577 3219.452,4768.461C3218.56,4771.345 3217.356,4774.155 3215.84,4776.89C3214.324,4779.625 3212.644,4782.004 3210.8,4784.025C3206.638,4788.604 3202.624,4790.328 3198.759,4789.199C3197.094,4789.437 3195.162,4788.664 3192.962,4786.88C3192.486,4786.463 3192.04,4786.136 3191.624,4785.899L3191.624,4786.612ZM3194.032,4780.19C3194.924,4779.179 3196.455,4777.277 3198.625,4774.482C3200.796,4771.687 3202.253,4769.502 3202.996,4767.926C3203.739,4766.35 3203.546,4764.879 3202.416,4763.511C3201.286,4762.084 3199.859,4763.154 3198.135,4766.722C3195.4,4772.43 3194.032,4776.92 3194.032,4780.19Z" style="fill:rgb(43,43,43);fill-rule:nonzero;"/>
                    <path d="M3262.711,4748.081L3263.068,4748.17C3263.187,4748.17 3263.246,4748.199 3263.246,4748.259C3264.792,4747.664 3266.071,4748.11 3267.081,4749.597C3267.736,4750.608 3268.241,4752.154 3268.598,4754.235C3268.717,4757.089 3268.419,4761.043 3267.706,4766.098C3266.338,4776.325 3265.595,4782.42 3265.476,4784.382C3265.595,4786.463 3264.316,4787.891 3261.641,4788.664C3259.322,4789.377 3257.003,4789.347 3254.684,4788.574C3252.246,4787.742 3251.235,4786.463 3251.651,4784.739C3251.175,4785.631 3250.7,4786.27 3250.224,4786.657C3249.748,4787.043 3248.812,4787.578 3247.414,4788.262C3246.017,4788.946 3244.04,4789.511 3241.483,4789.957C3238.926,4790.403 3236.369,4790.522 3233.812,4790.314C3231.255,4790.106 3228.922,4789.481 3226.811,4788.441C3224.7,4787.4 3223.287,4785.78 3222.574,4783.58C3221.206,4779.298 3221.385,4773.857 3223.109,4767.257C3224.298,4762.916 3226.439,4759.081 3229.531,4755.751C3233.099,4751.946 3237.142,4748.794 3241.661,4746.297C3245.051,4744.453 3248.321,4743.353 3251.473,4742.996C3252.543,4742.878 3253.479,4742.907 3254.282,4743.086C3255.085,4743.264 3255.947,4743.442 3256.869,4743.621C3257.79,4743.799 3258.668,4744.067 3259.5,4744.424C3261.641,4745.316 3262.711,4746.535 3262.711,4748.081ZM3246.21,4771.717C3246.626,4770.884 3246.968,4769.844 3247.236,4768.595C3247.503,4767.346 3247.875,4765.979 3248.351,4764.492C3243.534,4766.454 3239.848,4768.863 3237.291,4771.717C3234.496,4774.868 3234.674,4777.039 3237.826,4778.228C3240.561,4778.941 3242.553,4778.495 3243.802,4776.89C3244.337,4776.176 3244.813,4775.285 3245.229,4774.214C3245.645,4773.144 3246.151,4772.044 3246.745,4770.914C3246.567,4771.211 3246.389,4771.479 3246.21,4771.717Z" style="fill:rgb(43,43,43);fill-rule:nonzero;"/>
                    <path d="M3278.944,4749.418C3279.777,4747.278 3280.951,4745.657 3282.467,4744.557C3283.984,4743.457 3285.44,4742.774 3286.838,4742.506C3288.235,4742.238 3289.395,4742.402 3290.316,4742.996C3291.238,4743.591 3291.55,4744.513 3291.253,4745.761C3292.383,4744.632 3294.018,4743.591 3296.159,4742.64C3298.299,4741.688 3299.994,4741.034 3301.243,4740.677C3302.491,4740.321 3303.562,4740.142 3304.454,4740.142C3306.416,4740.261 3306.981,4741.332 3306.148,4743.353C3307.159,4743.532 3307.902,4744.186 3308.378,4745.316C3308.854,4746.445 3308.913,4747.694 3308.556,4749.062C3308.2,4750.429 3307.397,4751.767 3306.148,4753.075C3304.899,4754.384 3303.22,4755.275 3301.109,4755.751C3298.998,4756.227 3297.244,4757.312 3295.846,4759.007C3294.449,4760.701 3293.215,4762.797 3292.145,4765.295C3290.361,4769.517 3288.755,4775.493 3287.328,4783.223C3286.853,4786.017 3284.92,4788.366 3281.531,4790.269C3278.32,4792.112 3275.376,4792.648 3272.701,4791.875C3269.668,4791.042 3268.33,4788.812 3268.687,4785.185C3268.806,4782.628 3269.579,4779.224 3271.006,4774.972C3272.433,4770.721 3273.533,4767.51 3274.306,4765.339C3275.079,4763.169 3275.614,4761.519 3275.912,4760.389L3278.944,4749.418Z" style="fill:rgb(43,43,43);fill-rule:nonzero;"/>
                    <path d="M3322.649,4716.328C3323.957,4714.722 3325.533,4713.83 3327.376,4713.652C3329.22,4713.473 3331.003,4713.756 3332.728,4714.499C3334.452,4715.242 3335.924,4716.372 3337.143,4717.889C3338.362,4719.405 3339.031,4721.085 3339.15,4722.928L3338.347,4725.515C3339.001,4726.288 3339.581,4726.912 3340.086,4727.388C3340.592,4727.863 3340.874,4728.607 3340.934,4729.617C3341.29,4730.45 3339.804,4733.75 3336.474,4739.518C3335.106,4741.896 3333.664,4744.379 3332.148,4746.966C3330.632,4749.552 3329.398,4751.856 3328.447,4753.878C3329.16,4753.7 3329.874,4753.551 3330.587,4753.432C3331.301,4753.313 3332.014,4753.165 3332.728,4752.986C3337.128,4751.856 3340.101,4751.277 3341.647,4751.247C3343.193,4751.217 3344.472,4751.381 3345.483,4751.737C3348.218,4752.808 3349.645,4754.473 3349.764,4756.732C3348.931,4758.695 3345.81,4761.43 3340.398,4764.938C3339.15,4765.711 3338.139,4766.365 3337.366,4766.9L3329.606,4772.43C3329.19,4773.084 3328.893,4773.709 3328.714,4774.303L3328.714,4774.393C3328.833,4774.69 3329.591,4775.106 3330.989,4775.641C3332.386,4776.176 3333.59,4776.652 3334.601,4777.068C3336.979,4778.139 3339.09,4779.596 3340.934,4781.439C3341.528,4782.093 3341.915,4783.059 3342.093,4784.338C3342.272,4785.616 3342.078,4786.79 3341.513,4787.861C3340.949,4788.931 3339.953,4789.704 3338.525,4790.18C3337.098,4790.656 3335.106,4790.447 3332.549,4789.555C3328.803,4787.891 3324.373,4784.174 3319.26,4778.406C3318.665,4780.487 3318.085,4782.524 3317.52,4784.516C3316.955,4786.508 3316.346,4788.545 3315.692,4790.626C3314.8,4792.648 3312.719,4793.599 3309.448,4793.48C3308.14,4793.48 3306.966,4793.212 3305.925,4792.677C3304.885,4792.142 3304.275,4791.429 3304.097,4790.537C3303.621,4789.228 3303.383,4788.262 3303.383,4787.638C3303.383,4787.013 3303.532,4786.285 3303.829,4785.453C3305.197,4782.004 3306.059,4779.254 3306.416,4777.202C3306.773,4775.151 3307.01,4773.947 3307.129,4773.59C3305.464,4772.52 3304.483,4770.825 3304.186,4768.506C3303.829,4766.246 3304.364,4764.225 3305.791,4762.441C3307.694,4761.727 3309.062,4761.192 3309.894,4760.835C3310.251,4758.576 3310.846,4756.138 3311.678,4753.521C3313.165,4748.824 3314.309,4744.751 3315.112,4741.302C3315.915,4737.853 3317.074,4733.943 3318.591,4729.573C3320.107,4725.202 3321.46,4720.787 3322.649,4716.328Z" style="fill:rgb(43,43,43);fill-rule:nonzero;"/>
                </g>
                <g transform="matrix(1,0,0,1,-75.417802,-2088)">
                    <g transform="matrix(89.193461,0,0,89.193461,2933.733199,4804.679544)">
                        <path d="M0.497,-0L0.497,-0.7L0.713,-0.7L0.713,-0L0.497,-0ZM0.08,-0L0.08,-0.7L0.296,-0.7L0.296,-0L0.08,-0ZM0.161,-0.255L0.162,-0.443L0.619,-0.443L0.619,-0.255L0.161,-0.255Z" style="fill:white;fill-rule:nonzero;"/>
                    </g>
                    <g transform="matrix(89.193461,0,0,89.193461,3004.463613,4804.679544)">
                        <path d="M0.08,-0L0.08,-0.7L0.603,-0.7L0.603,-0.525L0.287,-0.525L0.287,-0.175L0.621,-0.175L0.621,-0L0.08,-0ZM0.183,-0.272L0.183,-0.436L0.566,-0.436L0.566,-0.272L0.183,-0.272Z" style="fill:white;fill-rule:nonzero;"/>
                    </g>
                    <g transform="matrix(89.193461,0,0,89.193461,3064.044845,4804.679544)">
                        <path d="M0.08,-0L0.08,-0.7L0.296,-0.7L0.296,-0.184L0.596,-0.184L0.596,-0L0.08,-0Z" style="fill:white;fill-rule:nonzero;"/>
                    </g>
                    <g transform="matrix(89.193461,0,0,89.193461,3118.988017,4804.679544)">
                        <path d="M0.08,-0L0.08,-0.7L0.296,-0.7L0.296,-0.184L0.596,-0.184L0.596,-0L0.08,-0Z" style="fill:white;fill-rule:nonzero;"/>
                    </g>
                    <g transform="matrix(89.193461,0,0,89.193461,3172.14732,4804.679544)">
                        <path d="M0.418,0.01C0.363,0.01 0.312,0.001 0.266,-0.017C0.22,-0.035 0.18,-0.06 0.146,-0.093C0.112,-0.126 0.086,-0.164 0.068,-0.209C0.049,-0.254 0.04,-0.302 0.04,-0.355C0.04,-0.408 0.049,-0.457 0.068,-0.502C0.086,-0.546 0.112,-0.584 0.146,-0.617C0.18,-0.65 0.22,-0.675 0.266,-0.693C0.312,-0.711 0.362,-0.72 0.417,-0.72C0.472,-0.72 0.523,-0.711 0.569,-0.693C0.614,-0.675 0.654,-0.65 0.688,-0.617C0.722,-0.584 0.748,-0.546 0.767,-0.502C0.785,-0.457 0.794,-0.409 0.794,-0.356C0.794,-0.303 0.785,-0.254 0.767,-0.209C0.748,-0.164 0.722,-0.126 0.688,-0.093C0.654,-0.06 0.614,-0.035 0.569,-0.017C0.523,0.001 0.473,0.01 0.418,0.01ZM0.417,-0.19C0.44,-0.19 0.46,-0.194 0.48,-0.202C0.498,-0.21 0.515,-0.222 0.529,-0.237C0.544,-0.252 0.555,-0.269 0.562,-0.289C0.57,-0.309 0.574,-0.331 0.574,-0.355C0.574,-0.379 0.57,-0.401 0.562,-0.421C0.555,-0.441 0.544,-0.459 0.529,-0.474C0.515,-0.488 0.498,-0.5 0.48,-0.508C0.46,-0.516 0.44,-0.52 0.417,-0.52C0.394,-0.52 0.373,-0.516 0.354,-0.508C0.335,-0.5 0.319,-0.488 0.304,-0.474C0.29,-0.459 0.279,-0.441 0.272,-0.421C0.264,-0.401 0.26,-0.379 0.26,-0.355C0.26,-0.331 0.264,-0.309 0.272,-0.289C0.279,-0.269 0.29,-0.252 0.304,-0.237C0.319,-0.222 0.335,-0.21 0.354,-0.202C0.373,-0.194 0.394,-0.19 0.417,-0.19Z" style="fill:white;fill-rule:nonzero;"/>
                    </g>
                    <g transform="matrix(89.193461,0,0,89.193461,3246.534666,4804.679544)">
                    </g>
                </g>
                <g transform="matrix(0.545655,0,0,0.545655,1260.725725,142.698781)">
                    <g transform="matrix(89.193461,0,0,89.193461,2933.733199,4804.679544)">
                        <path d="M0.091,-0L0.091,-0.7L0.228,-0.7L0.483,-0.285L0.393,-0.286L0.651,-0.7L0.782,-0.7L0.782,-0L0.635,-0L0.635,-0.24C0.635,-0.3 0.637,-0.354 0.64,-0.402C0.643,-0.45 0.648,-0.498 0.655,-0.545L0.673,-0.498L0.468,-0.18L0.402,-0.18L0.201,-0.496L0.218,-0.545C0.225,-0.501 0.23,-0.455 0.233,-0.408C0.236,-0.361 0.238,-0.305 0.238,-0.24L0.238,-0L0.091,-0Z" style="fill:white;fill-rule:nonzero;"/>
                    </g>
                    <g transform="matrix(89.193461,0,0,89.193461,3011.59909,4804.679544)">
                        <path d="M0.274,-0L0.274,-0.349L0.281,-0.3L-0.002,-0.7L0.171,-0.7L0.387,-0.39L0.319,-0.393L0.514,-0.7L0.681,-0.7L0.41,-0.289L0.425,-0.357L0.425,-0L0.274,-0Z" style="fill:white;fill-rule:nonzero;"/>
                    </g>
                    <g transform="matrix(89.193461,0,0,89.193461,3072.16145,4804.679544)">
                    </g>
                    <g transform="matrix(89.193461,0,0,89.193461,3099.543842,4804.679544)">
                        <path d="M0.091,-0L0.091,-0.7L0.225,-0.7L0.612,-0.177L0.584,-0.177C0.582,-0.197 0.579,-0.217 0.577,-0.237C0.575,-0.257 0.573,-0.277 0.571,-0.297C0.57,-0.318 0.568,-0.339 0.567,-0.36C0.566,-0.382 0.565,-0.405 0.565,-0.43C0.565,-0.454 0.564,-0.481 0.564,-0.509L0.564,-0.7L0.711,-0.7L0.711,-0L0.575,-0L0.18,-0.528L0.218,-0.527C0.221,-0.493 0.224,-0.463 0.226,-0.439C0.229,-0.414 0.231,-0.393 0.232,-0.375C0.234,-0.357 0.235,-0.341 0.236,-0.328C0.236,-0.315 0.237,-0.302 0.237,-0.29C0.238,-0.278 0.238,-0.265 0.238,-0.252L0.238,-0L0.091,-0Z" style="fill:white;fill-rule:nonzero;"/>
                    </g>
                    <g transform="matrix(89.193461,0,0,89.193461,3171.076998,4804.679544)">
                        <path d="M0.007,-0L0.282,-0.7L0.416,-0.7L0.689,-0L0.535,-0L0.394,-0.377C0.39,-0.388 0.385,-0.402 0.379,-0.418C0.374,-0.435 0.368,-0.453 0.362,-0.471C0.356,-0.49 0.35,-0.507 0.345,-0.524C0.34,-0.541 0.336,-0.556 0.333,-0.567L0.36,-0.568C0.356,-0.553 0.352,-0.537 0.347,-0.52C0.342,-0.504 0.337,-0.487 0.331,-0.47C0.325,-0.454 0.32,-0.437 0.314,-0.421C0.308,-0.405 0.302,-0.389 0.297,-0.374L0.156,-0L0.007,-0ZM0.135,-0.147L0.184,-0.268L0.505,-0.268L0.555,-0.147L0.135,-0.147Z" style="fill:white;fill-rule:nonzero;"/>
                    </g>
                    <g transform="matrix(89.193461,0,0,89.193461,3233.155647,4804.679544)">
                        <path d="M0.091,-0L0.091,-0.7L0.228,-0.7L0.483,-0.285L0.393,-0.286L0.651,-0.7L0.782,-0.7L0.782,-0L0.635,-0L0.635,-0.24C0.635,-0.3 0.637,-0.354 0.64,-0.402C0.643,-0.45 0.648,-0.498 0.655,-0.545L0.673,-0.498L0.468,-0.18L0.402,-0.18L0.201,-0.496L0.218,-0.545C0.225,-0.501 0.23,-0.455 0.233,-0.408C0.236,-0.361 0.238,-0.305 0.238,-0.24L0.238,-0L0.091,-0Z" style="fill:white;fill-rule:nonzero;"/>
                    </g>
                    <g transform="matrix(89.193461,0,0,89.193461,3311.021538,4804.679544)">
                        <path d="M0.091,-0L0.091,-0.7L0.564,-0.7L0.564,-0.568L0.238,-0.568L0.238,-0.132L0.571,-0.132L0.571,-0L0.091,-0ZM0.161,-0.293L0.161,-0.421L0.516,-0.421L0.516,-0.293L0.161,-0.293Z" style="fill:white;fill-rule:nonzero;"/>
                    </g>
                    <g transform="matrix(89.193461,0,0,89.193461,3367.659386,4804.679544)">
                    </g>
                    <g transform="matrix(89.193461,0,0,89.193461,3395.041778,4804.679544)">
                        <path d="M0.073,-0L0.073,-0.129L0.19,-0.129L0.19,-0.571L0.073,-0.571L0.073,-0.7L0.457,-0.7L0.457,-0.571L0.34,-0.571L0.34,-0.129L0.457,-0.129L0.457,-0L0.073,-0Z" style="fill:white;fill-rule:nonzero;"/>
                    </g>
                    <g transform="matrix(89.193461,0,0,89.193461,3442.314312,4804.679544)">
                        <path d="M0.318,0.01C0.275,0.01 0.235,0.005 0.2,-0.006C0.164,-0.017 0.132,-0.032 0.105,-0.053C0.077,-0.074 0.052,-0.099 0.03,-0.128L0.124,-0.235C0.157,-0.19 0.189,-0.159 0.222,-0.143C0.254,-0.126 0.289,-0.118 0.327,-0.118C0.347,-0.118 0.366,-0.121 0.382,-0.127C0.399,-0.133 0.412,-0.141 0.421,-0.151C0.431,-0.162 0.435,-0.175 0.435,-0.189C0.435,-0.2 0.433,-0.21 0.428,-0.219C0.424,-0.228 0.417,-0.235 0.408,-0.242C0.4,-0.249 0.389,-0.256 0.377,-0.261C0.365,-0.267 0.351,-0.272 0.337,-0.276C0.322,-0.28 0.306,-0.284 0.289,-0.287C0.252,-0.296 0.219,-0.306 0.191,-0.318C0.163,-0.331 0.14,-0.346 0.121,-0.364C0.102,-0.383 0.088,-0.404 0.079,-0.427C0.07,-0.45 0.066,-0.477 0.066,-0.506C0.066,-0.536 0.072,-0.564 0.086,-0.59C0.1,-0.615 0.118,-0.637 0.142,-0.656C0.165,-0.674 0.192,-0.689 0.223,-0.699C0.254,-0.709 0.287,-0.714 0.322,-0.714C0.365,-0.714 0.402,-0.709 0.434,-0.7C0.466,-0.69 0.494,-0.676 0.517,-0.658C0.541,-0.64 0.561,-0.618 0.577,-0.592L0.482,-0.5C0.468,-0.518 0.453,-0.534 0.436,-0.547C0.42,-0.56 0.402,-0.569 0.383,-0.575C0.364,-0.582 0.345,-0.585 0.325,-0.585C0.303,-0.585 0.284,-0.582 0.268,-0.576C0.252,-0.571 0.239,-0.562 0.23,-0.552C0.221,-0.541 0.217,-0.528 0.217,-0.513C0.217,-0.501 0.22,-0.49 0.226,-0.481C0.232,-0.471 0.241,-0.463 0.252,-0.456C0.264,-0.449 0.277,-0.443 0.293,-0.438C0.309,-0.433 0.327,-0.428 0.346,-0.424C0.382,-0.417 0.415,-0.407 0.445,-0.395C0.474,-0.383 0.499,-0.368 0.521,-0.351C0.542,-0.334 0.558,-0.314 0.569,-0.292C0.58,-0.269 0.586,-0.243 0.586,-0.214C0.586,-0.167 0.574,-0.127 0.552,-0.093C0.529,-0.06 0.498,-0.034 0.458,-0.017C0.418,0.001 0.371,0.01 0.318,0.01Z" style="fill:white;fill-rule:nonzero;"/>
                    </g>
                    <g transform="matrix(89.193461,0,0,89.193461,3498.595386,4804.679544)">
                    </g>
                </g>
            </g>
        </g>
    </g>
</svg>
